<?xml version="1.0" encoding="utf-8"?>
<svg id="master-artboard" viewBox="0 0 389.611328125 335.54766845703125" version="1.1" xmlns="http://www.w3.org/2000/svg" x="0px" y="0px" style="enable-background:new 0 0 1400 980;" width="389.611328125px" height="335.54766845703125px"><defs><style id="ee-google-fonts">@import url(https://fonts.googleapis.com/css?family=Bungee+Inline:400);</style></defs><rect id="ee-background" x="0" y="0" width="389.611328125" height="335.54766845703125" style="fill: white; fill-opacity: 0; pointer-events: none;"/><g transform="matrix(1.7736060619354248, 0, 0, 1.7736060619354248, -1509.6991047859192, -1.0415325164794922)"><g transform="matrix(0.31884804368019104, 0, 0, 0.31884804368019104, 809.6336059570314, -92.73348999023438)"><g transform="matrix(2.5117416381835938, 0, 0, 2.5117416381835938, -2463.0732421875, -205.40054321289062)">
	
	<g><path class="st1" d="M1222.8,430h-56.2c-0.3,0-0.6,0-0.9-0.1c-0.3,0-0.6,0.1-0.9,0.1h-56.2c-2.9,0-5.5-1.8-6.5-4.6&#10;&#9;&#9;s-0.2-5.8,2.1-7.7l18.2-15.2c1.2-1,2.8-1.6,4.4-1.6h10.4l26.8-2.9c0.5-0.1,1.1,0,1.6,0c0.5-0.1,1.1-0.1,1.6,0l26.8,2.9h10.4&#10;&#9;&#9;c1.6,0,3.2,0.6,4.4,1.6l18.2,15.2c2.3,1.9,3.1,4.9,2.1,7.7C1228.3,428.2,1225.8,430,1222.8,430z M1167,421h50l-13.2-11h-9.7&#10;&#9;&#9;c-0.2,0-0.5,0-0.7,0l-26.4-2.8l-1.2,0.5l-1.2-0.5l-26.4,2.8c-0.2,0-0.5,0-0.7,0h-9.7l-13.2,11h50l1.3-0.5L1167,421z" style="fill: #ab3b61; opacity: 1; stroke: #ab3b61; stroke-width: 0; fill-opacity: 1;" transform="matrix(1, 0, 0, 1, 1.1368683772161603e-13, 0)"/></g>
</g><g transform="matrix(2.5117416381835938, 0, 0, 2.5117416381835938, -2463.0732421875, -205.40054321289062)">
	
	<path class="st1" d="M1189,419.2h-45.5c-2.8,0-5.4-1.3-7.1-3.6c-1.6-2.3-2.1-5.2-1.2-7.9l5.2-16.2c1.2-3.6,4.5-6.1,8.3-6.1h34.6&#10;&#9;&#9;c3.7,0,7,2.4,8.3,5.9l5.7,16.1c0.9,2.7,0.5,5.7-1.1,8C1194.5,417.8,1191.8,419.2,1189,419.2z M1143.9,410.2h44.8l-5.5-15.7h-34.2&#10;&#9;&#9;L1143.9,410.2z" style="fill: #ab3b61; opacity: 1; stroke: #ab3b61; stroke-width: 0; fill-opacity: 1;"/>
</g><g transform="matrix(1, 0, 0, 1, 1.1368683772161603e-13, 0)"><g transform="matrix(2.5117416381835938, 0, 0, 2.5117416381835938, -2463.0732421875, -205.40054321289062)">
	
	<path class="st1" d="M1289.8,394.5h-241.5c-6.7,0-12.2-5.5-12.2-12.2V214.2c0-6.7,5.5-12.2,12.2-12.2h241.5&#10;&#9;&#9;c6.7,0,12.2,5.5,12.2,12.2v168.1C1302.1,389,1296.6,394.5,1289.8,394.5z M1048.3,210.9c-1.8,0-3.2,1.4-3.2,3.2v168.1&#10;&#9;&#9;c0,1.8,1.4,3.2,3.2,3.2h241.5c1.8,0,3.2-1.4,3.2-3.2V214.2c0-1.8-1.4-3.2-3.2-3.2H1048.3z" style="fill: #ab3b61; opacity: 1; stroke: #ab3b61; stroke-width: 0; fill-opacity: 1;"/>
</g></g><g transform="matrix(1, 0, 0, 1, 1.1368683772161603e-13, 0)"><g transform="matrix(2.5117416381835938, 0, 0, 2.5117416381835938, -2463.0732421875, -205.40054321289062)">
	
	<path class="st1" d="M1274.9,370.1h-211.7c-6.7,0-12.2-5.5-12.2-12.2V224.6c0-6.7,5.5-12.2,12.2-12.2h211.7&#10;&#9;&#9;c6.7,0,12.2,5.5,12.2,12.2v133.3C1287.1,364.6,1281.6,370.1,1274.9,370.1z M1063.2,221.3c-1.8,0-3.2,1.4-3.2,3.2v133.3&#10;&#9;&#9;c0,1.8,1.4,3.2,3.2,3.2h211.7c1.8,0,3.2-1.4,3.2-3.2V224.6c0-1.8-1.4-3.2-3.2-3.2H1063.2z" style="fill: #ab3b61; opacity: 1; stroke: #ab3b61; stroke-width: 0; fill-opacity: 1;"/>
</g></g></g></g><path d="M 245.51234436035156 264.7349548339844 L 363.2508544921875 329.6112976074219" style="fill: rgb(255, 255, 255); fill-opacity: 0; stroke: rgb(0, 0, 0); stroke-opacity: 1; stroke-width: 0; paint-order: fill;" transform="matrix(1, 0, 0, 1, 3.6042399406433105, 7.208479881286621)"/><path d="M 213.25808715820312 218.83241271972656 L 188.6180877685547 218.83241271972656 C 187.624755859375 218.83241271972656 186.90809631347656 218.61241149902344 186.4680938720703 218.1724090576172 C 186.02809143066406 217.72573852539062 185.80809020996094 217.0090789794922 185.80809020996094 216.0224151611328 L 185.80809020996094 206.90240478515625 C 185.80809020996094 205.90907287597656 186.02809143066406 205.19241333007812 186.4680938720703 204.75241088867188 C 186.90809631347656 204.31240844726562 187.624755859375 204.0924072265625 188.6180877685547 204.0924072265625 L 209.5980987548828 204.0924072265625 C 210.27142333984375 204.0924072265625 210.77809143066406 203.87240600585938 211.11810302734375 203.4324188232422 C 211.45809936523438 202.98574829101562 211.6280975341797 202.45240783691406 211.6280975341797 201.83241271972656 C 211.6280975341797 200.94573974609375 211.45809936523438 200.29574584960938 211.11810302734375 199.88241577148438 C 210.77809143066406 199.46241760253906 210.27142333984375 199.22573852539062 209.5980987548828 199.1724090576172 L 197.89810180664062 197.54241943359375 C 194.25808715820312 197.0224151611328 191.3314208984375 195.82574462890625 189.1180877685547 193.95240783691406 C 186.9114227294922 192.07907104492188 185.80809020996094 188.95907592773438 185.80809020996094 184.5924072265625 L 185.80809020996094 176.40240478515625 C 185.80809020996094 171.982421875 187.23809814453125 168.58908081054688 190.0980987548828 166.222412109375 C 192.95809936523438 163.85574340820312 196.90809631347656 162.6724090576172 201.94808959960938 162.6724090576172 L 223.7880859375 162.6724090576172 C 224.78143310546875 162.6724090576172 225.4980926513672 162.8924102783203 225.93809509277344 163.33241271972656 C 226.3780975341797 163.77908325195312 226.5980987548828 164.49574279785156 226.5980987548828 165.482421875 L 226.5980987548828 174.76242065429688 C 226.5980987548828 175.74908447265625 226.3780975341797 176.4657440185547 225.93809509277344 176.91241455078125 C 225.4980926513672 177.3524169921875 224.78143310546875 177.57241821289062 223.7880859375 177.57241821289062 L 205.61810302734375 177.57241821289062 C 204.94476318359375 177.57241821289062 204.4247589111328 177.79241943359375 204.05809020996094 178.232421875 C 203.69142150878906 178.6724090576172 203.50808715820312 179.232421875 203.50808715820312 179.91241455078125 C 203.50808715820312 180.58575439453125 203.69142150878906 181.15574645996094 204.05809020996094 181.62240600585938 C 204.4247589111328 182.0957489013672 204.94476318359375 182.35574340820312 205.61810302734375 182.40240478515625 L 217.23809814453125 183.96241760253906 C 220.8780975341797 184.482421875 223.81809997558594 185.6790771484375 226.05809020996094 187.5524139404297 C 228.2914276123047 189.42575073242188 229.40809631347656 192.54574584960938 229.40809631347656 196.91241455078125 L 229.40809631347656 205.1024169921875 C 229.40809631347656 209.5224151611328 227.96475219726562 212.91574096679688 225.07809448242188 215.28240966796875 C 222.19143676757812 217.64907836914062 218.25143432617188 218.83241271972656 213.25808715820312 218.83241271972656 M 219.57809448242188 169.69241333007812 L 202.26809692382812 169.69241333007812 C 199.874755859375 169.69241333007812 197.94808959960938 170.35574340820312 196.48809814453125 171.68240356445312 C 195.03475952148438 173.0090789794922 194.30809020996094 174.71241760253906 194.30809020996094 176.79241943359375 L 194.30809020996094 183.18240356445312 C 194.30809020996094 185.3157501220703 194.73809814453125 186.78575134277344 195.5980987548828 187.5924072265625 C 196.45143127441406 188.39907836914062 197.5547637939453 188.9324188232422 198.90809631347656 189.19241333007812 L 215.36810302734375 192.54241943359375 C 216.82142639160156 192.85574340820312 217.97808837890625 193.46908569335938 218.8380889892578 194.38241577148438 C 219.69808959960938 195.28907775878906 220.1280975341797 196.9657440185547 220.1280975341797 199.41241455078125 L 220.1280975341797 203.9324188232422 C 220.1280975341797 206.01242065429688 219.4114227294922 207.7157440185547 217.97808837890625 209.04241943359375 C 216.55142211914062 210.36907958984375 214.64141845703125 211.03240966796875 212.2480926513672 211.03240966796875 L 192.82809448242188 211.03240966796875 L 192.82809448242188 211.81240844726562 L 212.2480926513672 211.81240844726562 C 214.90142822265625 211.81240844726562 217.00808715820312 211.07241821289062 218.56809997558594 209.5924072265625 C 220.1280975341797 208.10574340820312 220.90809631347656 206.21908569335938 220.90809631347656 203.9324188232422 L 220.90809631347656 199.41241455078125 C 220.90809631347656 196.70574951171875 220.40142822265625 194.83241271972656 219.38809204101562 193.79241943359375 C 218.374755859375 192.75241088867188 217.0880889892578 192.07574462890625 215.52809143066406 191.76242065429688 L 199.06809997558594 188.41241455078125 C 197.86810302734375 188.20574951171875 196.90475463867188 187.73907470703125 196.1781005859375 187.01242065429688 C 195.45143127441406 186.27908325195312 195.0880889892578 185.00241088867188 195.0880889892578 183.18240356445312 L 195.0880889892578 176.79241943359375 C 195.0880889892578 174.972412109375 195.73809814453125 173.46241760253906 197.03810119628906 172.26242065429688 C 198.3380889892578 171.06907653808594 200.0814208984375 170.472412109375 202.26809692382812 170.472412109375 L 219.57809448242188 170.472412109375 L 219.57809448242188 169.69241333007812 ZM 265.35272216796875 188.8024139404297 C 264.4127197265625 188.8024139404297 263.7360534667969 188.5957489013672 263.3227233886719 188.1824188232422 C 262.9093933105469 187.76242065429688 262.2593994140625 186.87574768066406 261.37274169921875 185.5224151611328 L 251.85272216796875 171.0224151611328 C 251.54605102539062 170.50241088867188 251.18272399902344 170.14907836914062 250.76272583007812 169.96241760253906 C 250.34939575195312 169.78240966796875 249.93272399902344 169.69241333007812 249.51272583007812 169.69241333007812 L 248.19271850585938 169.69241333007812 C 247.51272583007812 169.69241333007812 247.0060577392578 169.8890838623047 246.6727294921875 170.28240966796875 C 246.33273315429688 170.66908264160156 246.1627197265625 171.27908325195312 246.1627197265625 172.11241149902344 L 246.1627197265625 211.81240844726562 L 246.94271850585938 211.81240844726562 L 246.94271850585938 172.11241149902344 C 246.94271850585938 171.69241333007812 247.01939392089844 171.3157501220703 247.1727294921875 170.982421875 C 247.33273315429688 170.6424102783203 247.6727294921875 170.472412109375 248.19271850585938 170.472412109375 L 249.36273193359375 170.472412109375 C 249.72271728515625 170.472412109375 250.04605102539062 170.52574157714844 250.33273315429688 170.63241577148438 C 250.619384765625 170.732421875 250.9193878173828 171.04241943359375 251.23272705078125 171.56240844726562 L 260.7527160644531 185.91241455078125 C 261.6860656738281 187.31907653808594 262.3993835449219 188.28240966796875 262.8927307128906 188.8024139404297 C 263.38604736328125 189.32241821289062 264.2060546875 189.58241271972656 265.35272216796875 189.58241271972656 C 266.49273681640625 189.58241271972656 267.3127136230469 189.32241821289062 267.8127136230469 188.8024139404297 C 268.3060607910156 188.28240966796875 269.0194091796875 187.31907653808594 269.9527282714844 185.91241455078125 L 279.47271728515625 171.56240844726562 C 279.7793884277344 171.04241943359375 280.0627136230469 170.732421875 280.3227233886719 170.63241577148438 C 280.5827331542969 170.52574157714844 280.89605712890625 170.472412109375 281.2627258300781 170.472412109375 L 282.4327392578125 170.472412109375 C 282.9527282714844 170.472412109375 283.302734375 170.6424102783203 283.48272705078125 170.982421875 C 283.6694030761719 171.3157501220703 283.7627258300781 171.69241333007812 283.7627258300781 172.11241149902344 L 283.7627258300781 211.81240844726562 L 284.542724609375 211.81240844726562 L 284.542724609375 172.11241149902344 C 284.542724609375 171.27908325195312 284.37274169921875 170.66908264160156 284.03271484375 170.28240966796875 C 283.6927185058594 169.8890838623047 283.1593933105469 169.69241333007812 282.4327392578125 169.69241333007812 L 281.10272216796875 169.69241333007812 C 280.68939208984375 169.69241333007812 280.28607177734375 169.78240966796875 279.8927307128906 169.96241760253906 C 279.50604248046875 170.14907836914062 279.15606689453125 170.50241088867188 278.84271240234375 171.0224151611328 L 269.3327331542969 185.5224151611328 C 268.446044921875 186.87574768066406 267.7960510253906 187.76242065429688 267.3827209472656 188.1824188232422 C 266.9627380371094 188.5957489013672 266.28607177734375 188.8024139404297 265.35272216796875 188.8024139404297 M 252.32272338867188 218.83241271972656 L 240.70272827148438 218.83241271972656 C 239.716064453125 218.83241271972656 238.9993896484375 218.61241149902344 238.55271911621094 218.1724090576172 C 238.11273193359375 217.72573852539062 237.89273071289062 217.0090789794922 237.89273071289062 216.0224151611328 L 237.89273071289062 165.482421875 C 237.89273071289062 164.49574279785156 238.11273193359375 163.77908325195312 238.55271911621094 163.33241271972656 C 238.9993896484375 162.8924102783203 239.716064453125 162.6724090576172 240.70272827148438 162.6724090576172 L 253.26272583007812 162.6724090576172 C 254.09605407714844 162.6724090576172 254.7860565185547 162.85574340820312 255.33273315429688 163.222412109375 C 255.8727264404297 163.58241271972656 256.37939453125 164.1790771484375 256.85272216796875 165.01242065429688 L 263.87274169921875 177.722412109375 C 264.1327209472656 178.19573974609375 264.35272216796875 178.53575134277344 264.53271484375 178.74241638183594 C 264.7127380371094 178.94908142089844 264.9593811035156 179.0524139404297 265.2727355957031 179.0524139404297 L 265.97271728515625 179.0524139404297 C 266.28607177734375 179.0524139404297 266.53271484375 178.94908142089844 266.7127380371094 178.74241638183594 C 266.8993835449219 178.53575134277344 267.12274169921875 178.19573974609375 267.3827209472656 177.722412109375 L 274.3227233886719 165.01242065429688 C 274.7893981933594 164.1790771484375 275.2960510253906 163.58241271972656 275.84271240234375 163.222412109375 C 276.389404296875 162.85574340820312 277.07940673828125 162.6724090576172 277.9127197265625 162.6724090576172 L 290.542724609375 162.6724090576172 C 291.5293884277344 162.6724090576172 292.2460632324219 162.8924102783203 292.6927185058594 163.33241271972656 C 293.1327209472656 163.77908325195312 293.35272216796875 164.49574279785156 293.35272216796875 165.482421875 L 293.35272216796875 216.0224151611328 C 293.35272216796875 217.0090789794922 293.1327209472656 217.72573852539062 292.6927185058594 218.1724090576172 C 292.2460632324219 218.61241149902344 291.5293884277344 218.83241271972656 290.542724609375 218.83241271972656 L 278.53271484375 218.83241271972656 C 277.5460510253906 218.83241271972656 276.8327331542969 218.61241149902344 276.3927307128906 218.1724090576172 C 275.946044921875 217.72573852539062 275.72271728515625 217.0090789794922 275.72271728515625 216.0224151611328 L 275.72271728515625 188.57241821289062 L 271.12274169921875 197.07241821289062 C 270.65606689453125 197.95240783691406 270.0960693359375 198.58908081054688 269.4427185058594 198.98240661621094 C 268.7960510253906 199.36907958984375 267.9794006347656 199.56240844726562 266.99273681640625 199.56240844726562 L 263.87274169921875 199.56240844726562 C 262.87939453125 199.56240844726562 262.05938720703125 199.36907958984375 261.4127197265625 198.98240661621094 C 260.7593994140625 198.58908081054688 260.19940185546875 197.95240783691406 259.73272705078125 197.07241821289062 L 255.13272094726562 188.57241821289062 L 255.13272094726562 216.0224151611328 C 255.13272094726562 217.0090789794922 254.9127197265625 217.72573852539062 254.47271728515625 218.1724090576172 C 254.02606201171875 218.61241149902344 253.30938720703125 218.83241271972656 252.32272338867188 218.83241271972656 Z" transform="matrix(1, 0, 0, 1, -49.25794219970703, -58.86924743652344)" style="fill: #ab3b61; white-space: pre; color: rgb(51, 51, 51);"/></svg>